<svg id="Capa_1" enable-background="new 0 0 511.676 511.676" height="512" viewBox="0 0 511.676 511.676" width="512" xmlns="http://www.w3.org/2000/svg"><path d="m494.775 271.104h-48.855v-13.079c0-11.178-9.094-20.271-20.271-20.271h-18.785v-32.421c0-10.601-8.624-19.225-19.224-19.225h-62.825v-46.498c0-16.99-13.822-30.813-30.813-30.813h-263.189c-16.99 0-30.813 13.822-30.813 30.813v168.569c0 16.99 13.823 30.813 30.813 30.813h55.785v29.563l-12.339 23.317c-1.23 2.325-1.153 5.124.204 7.377 1.356 2.253 3.794 3.631 6.425 3.631h413.887c9.319 0 16.901-7.582 16.901-16.901v-97.974c0-9.319-7.582-16.901-16.901-16.901zm1.901 16.901v63.846h-69.331v-63.846c0-1.048.853-1.901 1.901-1.901h65.528c1.049 0 1.902.853 1.902 1.901zm-65.756-29.98v13.079h-1.673c-9.319 0-16.901 7.582-16.901 16.901v74.409h-62.611v-83.19l11.089-.083c.005 11.143 9.073 20.206 20.217 20.206 10.828 0 19.695-8.556 20.194-19.262h1.051c4.142 0 7.5-3.358 7.5-7.5s-3.358-7.5-7.5-7.5h-8.529c-4.142 0-7.5 3.358-7.5 7.5v6.545c0 2.876-2.34 5.217-5.217 5.217s-5.217-2.34-5.217-5.217v-7.545c0-1.999-.798-3.915-2.216-5.323-1.419-1.408-3.357-2.17-5.339-2.177l-26.089.194c-4.121.031-7.444 3.38-7.444 7.5v98.134c0 4.142 3.358 7.5 7.5 7.5h70.111v8.564c0 .643.044 1.276.114 1.901h-82.374c-2.907 0-5.271-2.365-5.271-5.271v-124.582c0-2.907 2.365-5.271 5.271-5.271h95.563c2.906 0 5.271 2.364 5.271 5.271zm-65.056-20.271h-35.778c-11.178 0-20.271 9.094-20.271 20.271v72.074h-125.492v-102.991h181.541zm-335.051-113.957h263.189c8.719 0 15.813 7.094 15.813 15.813v46.499h-11v-43.811c0-4.142-3.358-7.5-7.5-7.5h-257.815c-4.142 0-7.5 3.358-7.5 7.5v130.098c0 4.142 3.358 7.5 7.5 7.5h40.399c4.142 0 7.5-3.358 7.5-7.5s-3.358-7.5-7.5-7.5h-32.899v-115.099h242.814v36.311h-37.566c-4.142 0-7.5 3.358-7.5 7.5s3.358 7.5 7.5 7.5h141.392c2.329 0 4.224 1.895 4.224 4.225v32.421h-11v-18.146c0-4.142-3.358-7.5-7.5-7.5h-196.541c-4.142 0-7.5 3.358-7.5 7.5v117.991c0 4.142 3.358 7.5 7.5 7.5h132.991v10.836h-151.491v-150.602c0-2.33 1.895-4.225 4.224-4.225h53.701c4.142 0 7.5-3.358 7.5-7.5s-3.358-7.5-7.5-7.5h-53.701c-10.6 0-19.224 8.624-19.224 19.225v59.563h-39.424c-4.142 0-7.5 3.358-7.5 7.5s3.358 7.5 7.5 7.5h39.424v10.438h-128.323v-150.724c0-8.72 7.094-15.813 15.813-15.813zm-15.813 184.382v-2.846h128.323v18.659h-49.225-63.285c-8.719 0-15.813-7.094-15.813-15.813zm85.727 65.746c.572-1.081.871-2.285.871-3.508v-31.425h41.726v16.944h-19.192c-6.558 0-11.894 5.335-11.894 11.894v11.684c0 2.948.554 5.767 1.555 8.366h-20.45zm34.877 13.955c-4.613 0-8.367-3.753-8.367-8.366v-8.578h182.577v11.672c0 1.826.265 3.587.72 5.271h-159.711-15.219zm359.171 0h-65.528c-.126 0-.248-.014-.367-.037-.01-.002-.02-.004-.031-.006-.858-.183-1.504-.946-1.504-1.858v-19.128h69.331v19.128c0 1.048-.853 1.901-1.901 1.901z"/><circle cx="462.011" cy="376.808" r="5.989"/></svg>