<svg id="Ebene_1" data-name="Ebene 1" xmlns="http://www.w3.org/2000/svg" viewBox="0 0 1920 1080"><defs><style>.cls-1{fill:#4c5c69;}.cls-2{font-size:100px;fill:#fff;font-family:SugoProClassicTrial-Regular, Sugo Pro Classic Trial;letter-spacing:0.2em;}.cls-3{letter-spacing:0.16em;}.cls-4{letter-spacing:0.17em;}.cls-5{fill:#0ea9ab;}</style></defs><title>SIMPLE STATS</title><rect class="cls-1" width="1920" height="1080"/><text class="cls-2" transform="translate(624.95 675.44)">SIMPLE S<tspan class="cls-3" x="463.17" y="0">T</tspan><tspan class="cls-4" x="515.25" y="0">A</tspan><tspan x="573.49" y="0">TS</tspan></text><rect class="cls-5" x="699" y="337.22" width="12" height="230" rx="1.49" transform="translate(1157.22 -252.78) rotate(90)"/><rect class="cls-5" x="954.5" y="404.72" width="12" height="231" rx="1.49" transform="translate(1480.72 -440.28) rotate(90)"/><rect class="cls-5" x="1209.5" y="270.72" width="12" height="229" rx="1.49" transform="translate(1600.72 -830.28) rotate(90)"/><rect class="cls-5" x="1318" y="379.22" width="12" height="296" rx="1.49"/><rect class="cls-5" x="1101" y="379.22" width="12" height="204" rx="1.49"/><rect class="cls-5" x="1064" y="514.22" width="12" height="68" rx="1.49"/><rect class="cls-5" x="845" y="514.22" width="12" height="68" rx="1.49"/><rect class="cls-5" x="590" y="446.22" width="12" height="229" rx="1.49"/><rect class="cls-5" x="808" y="446.22" width="12" height="136" rx="1.49"/></svg>